<?xml version="1.0" standalone="no"?>
<!DOCTYPE svg PUBLIC "-//W3C//DTD SVG 20010904//EN"
 "http://www.w3.org/TR/2001/REC-SVG-20010904/DTD/svg10.dtd">
<svg version="1.0" xmlns="http://www.w3.org/2000/svg"
 width="2088.000000pt" height="2088.000000pt" viewBox="0 0 2088.000000 2088.000000"
 preserveAspectRatio="xMidYMid meet">
<metadata>
Created by potrace 1.11, written by Peter Selinger 2001-2013
</metadata>
<g transform="translate(0.000000,2088.000000) scale(0.100000,-0.100000)"
fill="#000000" stroke="none">
<path d="M1814 19754 c-10 -81 3 -2453 15 -2834 17 -495 40 -1064 56 -1375
150 -2826 506 -5052 1055 -6600 580 -1633 1439 -3066 2634 -4395 186 -207 768
-787 986 -982 956 -857 1989 -1572 3072 -2127 339 -174 771 -371 814 -371 50
0 694 301 1027 481 635 342 1283 759 1872 1202 1316 992 2443 2194 3294 3514
657 1020 1193 2189 1516 3308 478 1657 777 3910 885 6680 35 890 52 2105 43
2968 l-6 587 -8628 0 -8628 0 -7 -56z m8961 -714 c1088 -51 2083 -314 3040
-804 1248 -639 2279 -1604 3002 -2811 96 -162 186 -327 188 -345 1 -10 9 -25
18 -34 20 -20 22 -36 5 -36 -9 0 -8 -3 2 -9 8 -6 18 -7 22 -5 5 3 8 2 7 -3 -1
-4 -1 -12 0 -18 1 -5 1 -136 1 -290 0 -208 -4 -281 -13 -287 -7 -4 -7 -8 -2
-8 11 0 12 -56 2 -67 -10 -9 -9 -45 1 -40 4 3 8 -6 9 -20 1 -27 21 -46 36 -36
5 3 4 -5 -3 -17 -7 -12 -8 -25 -4 -29 5 -3 10 -13 12 -21 2 -8 35 -107 73
-220 370 -1088 474 -2199 313 -3335 -64 -452 -193 -977 -339 -1375 -25 -69
-47 -133 -48 -142 -2 -10 -6 -21 -10 -24 -10 -10 -9 -594 1 -594 4 0 8 -27 8
-60 0 -42 -4 -60 -13 -60 -7 0 -13 5 -13 10 0 6 4 10 8 10 4 0 8 9 9 20 1 11
-2 20 -6 20 -4 0 -8 7 -8 15 0 8 4 12 9 9 4 -3 8 0 8 5 0 6 -4 11 -9 11 -5 0
-10 74 -11 168 -1 183 -2 191 -14 211 -6 9 -5 12 2 7 7 -4 10 3 9 20 -1 15 -7
29 -13 31 -13 4 -14 -71 -1 -83 4 -4 7 -112 7 -241 0 -216 -1 -234 -19 -252
-11 -11 -23 -16 -27 -13 -4 4 -4 2 0 -5 4 -7 14 -9 23 -6 12 5 14 3 8 -7 -6
-10 -4 -12 10 -6 16 6 17 5 2 -16 -8 -13 -21 -23 -29 -22 -8 1 -15 -4 -15 -11
0 -7 6 -11 13 -8 30 11 -216 -417 -401 -697 -618 -936 -1480 -1749 -2453
-2314 -965 -561 -1998 -885 -3124 -981 -219 -19 -836 -28 -1028 -14 -997 69
-1877 292 -2721 690 -1748 825 -3110 2296 -3792 4094 -238 626 -383 1258 -453
1965 -22 220 -30 865 -15 1110 83 1328 493 2550 1226 3655 957 1445 2387 2509
4045 3010 553 167 1173 275 1725 301 72 4 131 8 133 9 9 8 411 4 607 -5z
m6313 -4135 c-3 -3 -9 2 -12 12 -6 14 -5 15 5 6 7 -7 10 -15 7 -18z m3 -48
c-6 -6 -11 -18 -11 -26 0 -14 1 -14 10 -1 6 10 9 -90 8 -290 l-3 -305 -5 290
-5 290 -4 -290 c-3 -159 -6 -273 -8 -252 -3 25 -8 35 -16 30 -9 -5 -9 -3 0 8
9 11 13 89 13 286 1 149 4 273 7 277 3 3 10 3 15 0 6 -4 5 -11 -1 -17z m6
-6234 c-1 -81 -3 -17 -3 142 0 160 2 226 3 148 2 -78 2 -208 0 -290z m-9 -305
c-2 -6 -10 -13 -16 -14 -7 -1 -8 0 -2 3 5 2 8 9 4 14 -3 5 0 9 6 9 7 0 10 -5
8 -12z"/>
<path d="M10065 18259 c-22 -4 -63 -8 -92 -8 -28 -1 -55 -5 -58 -11 -4 -6 6
-10 22 -10 59 0 63 -9 88 -200 3 -25 14 -112 25 -195 10 -82 18 -151 16 -152
-1 -2 -22 14 -46 35 -298 255 -585 490 -593 485 -11 -7 -8 -50 29 -396 29
-277 29 -309 -4 -317 -13 -3 -22 -9 -22 -15 1 -5 5 -9 9 -8 4 1 43 5 87 8 43
3 89 8 102 11 28 6 18 26 -11 23 -55 -4 -61 5 -77 121 -6 47 -13 99 -15 115
-27 199 -36 276 -33 285 2 6 75 -51 163 -126 153 -130 348 -289 428 -349 22
-16 41 -24 46 -19 5 5 -6 155 -25 334 -19 179 -32 335 -29 346 3 13 16 24 30
28 14 4 25 11 25 16 0 11 -8 11 -65 -1z"/>
<path d="M10464 18251 c3 -4 19 -11 35 -14 23 -5 30 -13 35 -40 3 -19 4 -49 2
-68 -3 -19 -8 -92 -11 -164 -10 -210 -24 -365 -35 -386 -6 -10 -19 -19 -30
-19 -10 0 -22 -4 -25 -10 -4 -6 16 -10 52 -11 32 0 66 -2 76 -4 74 -14 247
-27 292 -21 86 10 159 42 220 97 160 147 160 407 0 541 -76 64 -167 87 -389
98 -215 12 -228 12 -222 1z m401 -66 c100 -33 189 -122 215 -215 5 -19 10 -70
10 -112 0 -139 -50 -225 -160 -277 -47 -22 -68 -26 -145 -26 -109 1 -162 17
-176 53 -6 15 -8 59 -5 97 3 39 11 162 16 275 6 113 13 211 16 219 6 18 158 9
229 -14z"/>
<path d="M12013 18064 c4 -4 17 -12 29 -18 14 -7 24 -22 26 -38 2 -14 -22
-111 -53 -215 -31 -103 -59 -214 -62 -245 -12 -119 44 -211 159 -264 55 -25
75 -29 153 -29 100 0 128 10 184 67 47 46 82 126 141 323 28 93 56 177 61 187
6 11 21 18 39 18 54 0 32 15 -64 44 -96 29 -146 32 -91 5 20 -9 31 -23 33 -39
3 -26 -90 -349 -122 -424 -52 -123 -151 -172 -267 -131 -94 34 -147 120 -134
221 7 58 104 393 127 442 9 18 22 27 38 28 49 2 43 6 -60 40 -99 32 -152 42
-137 28z"/>
<path d="M8726 18018 c-3 -18 -12 -96 -21 -173 -8 -77 -17 -156 -19 -175 -3
-19 -12 -102 -22 -185 -19 -165 -31 -202 -75 -218 -34 -13 -40 -32 -6 -23 12
3 59 16 105 27 79 21 107 39 58 39 -16 0 -26 7 -29 21 -7 26 11 211 22 222 4
4 56 20 115 36 l108 28 75 -99 c43 -58 72 -105 69 -114 -4 -9 1 -14 15 -14 31
0 189 42 189 50 0 4 -19 8 -42 8 -24 1 -52 9 -66 19 -14 11 -120 144 -236 298
-116 153 -216 281 -223 283 -7 2 -14 -11 -17 -30z m128 -248 c43 -61 76 -113
75 -115 -2 -1 -46 -14 -97 -28 l-94 -26 7 107 c4 59 9 114 11 122 1 8 3 25 3
38 1 13 5 21 9 18 5 -3 43 -55 86 -116z"/>
<path d="M13093 17718 c-6 -7 -42 -78 -81 -158 -233 -487 -219 -463 -270 -454
-21 4 -33 3 -29 -2 13 -14 201 -102 207 -97 2 2 -10 16 -29 30 -27 21 -31 30
-26 52 3 14 52 126 108 249 l101 222 117 -352 c121 -366 144 -428 157 -428 5
0 77 140 161 311 l153 311 34 -4 c19 -2 34 -1 34 3 0 10 -189 103 -196 97 -3
-3 9 -16 25 -28 18 -12 31 -30 31 -42 0 -31 -213 -489 -221 -475 -3 7 -59 179
-124 382 -65 204 -123 376 -130 383 -10 11 -14 11 -22 0z"/>
<path d="M7553 17600 c-174 -60 -294 -143 -346 -239 -96 -175 -18 -414 166
-507 62 -32 170 -42 248 -24 115 26 286 128 320 191 8 15 -2 41 -51 132 -33
63 -60 123 -60 135 0 11 10 28 22 36 12 9 19 18 16 21 -3 4 -54 -19 -113 -50
-102 -55 -130 -79 -65 -57 41 15 56 -1 120 -128 l51 -101 -31 -29 c-17 -16
-57 -42 -88 -57 -49 -24 -69 -28 -147 -28 -78 0 -97 4 -146 28 -100 49 -183
159 -208 275 -32 151 71 278 273 337 72 21 119 13 159 -26 16 -17 32 -27 35
-25 6 7 -54 140 -65 143 -5 1 -45 -11 -90 -27z"/>
<path d="M14034 17199 c14 -17 26 -34 26 -38 0 -18 -326 -475 -364 -510 -22
-21 -29 -23 -51 -13 -45 21 -27 -6 33 -47 31 -22 91 -67 132 -101 41 -33 109
-77 149 -98 71 -35 80 -37 170 -37 85 0 103 3 153 28 77 38 145 107 182 187
26 55 30 77 30 140 0 142 -68 237 -267 376 -62 43 -132 93 -156 111 -55 41
-71 42 -37 2z m182 -152 c133 -99 179 -177 179 -307 0 -74 -4 -92 -28 -140
-38 -73 -118 -154 -181 -181 -90 -38 -200 -13 -313 72 -29 21 -60 53 -68 69
-14 27 -14 33 1 63 32 62 326 467 339 467 7 0 39 -19 71 -43z"/>
<path d="M6690 17110 c-73 -56 -113 -104 -56 -67 15 10 37 17 49 15 14 -2 74
-71 180 -206 87 -112 156 -206 154 -209 -3 -2 -184 26 -402 63 -257 44 -399
64 -406 57 -6 -6 59 -102 187 -274 108 -145 200 -273 204 -284 5 -14 2 -26
-11 -41 -41 -45 -15 -46 39 -1 21 17 60 47 87 65 52 36 55 53 5 27 -29 -15
-34 -15 -55 -1 -24 16 -327 397 -321 403 2 2 93 -12 202 -32 227 -40 532 -85
575 -85 16 0 29 5 29 11 0 6 -85 127 -189 268 -103 141 -193 266 -199 277 -9
18 -8 27 9 48 34 43 1 29 -81 -34z"/>
<path d="M10060 16879 c-1277 -102 -2436 -635 -3335 -1534 -419 -420 -760
-896 -1015 -1420 -329 -677 -494 -1344 -532 -2152 -2 -41 -2 -42 -21 -25 -19
16 -20 16 -8 -5 6 -13 17 -23 23 -23 6 0 8 -3 5 -7 -11 -10 -65 50 -59 66 4
10 1 13 -11 8 -11 -4 -14 -2 -10 9 4 11 0 15 -13 12 -13 -2 -19 3 -18 13 1 9
-6 16 -15 15 -10 -1 -15 5 -13 18 3 13 -1 17 -12 13 -10 -4 -13 -1 -9 9 4 11
0 15 -13 12 -13 -2 -19 3 -18 13 1 9 -6 16 -15 15 -10 -1 -15 5 -13 18 3 13
-1 17 -12 13 -11 -4 -13 -1 -9 10 5 12 2 15 -8 11 -10 -4 -15 1 -16 15 -2 24
-19 44 -22 25 -10 -70 -11 -598 -2 -734 71 -1026 383 -1937 952 -2779 846
-1251 2189 -2114 3674 -2360 331 -55 466 -66 842 -72 337 -5 490 0 463 17 -8
5 -18 6 -22 4 -4 -3 -5 3 -1 12 5 13 3 16 -10 11 -11 -4 -14 -2 -10 9 4 11 0
15 -13 12 -13 -2 -19 3 -18 13 1 9 -6 16 -15 15 -10 -1 -15 5 -13 18 3 13 -1
17 -12 13 -10 -4 -13 -1 -9 9 4 11 0 15 -13 12 -13 -2 -19 3 -18 13 1 9 -6 16
-15 15 -10 -1 -15 5 -13 18 3 13 -1 17 -12 13 -11 -4 -13 -1 -9 10 5 12 2 15
-11 10 -10 -4 -19 -1 -22 8 -3 8 -15 17 -26 21 -11 3 -17 8 -15 11 3 2 16 -1
29 -8 l23 -12 -24 27 c-18 19 -20 26 -10 26 8 0 21 -6 28 -12 8 -7 11 -8 8 -2
-4 8 34 13 126 18 1155 60 2259 503 3147 1262 148 126 448 427 574 574 636
746 1053 1646 1205 2600 49 309 56 406 55 830 0 357 -2 427 -22 588 -133 1081
-551 2037 -1246 2844 -146 169 -444 464 -606 599 -823 685 -1759 1082 -2846
1205 -166 18 -752 27 -924 13z m925 -278 c1184 -143 2214 -646 3025 -1477 827
-847 1312 -1908 1421 -3104 28 -301 12 -791 -37 -1120 -107 -728 -373 -1431
-771 -2035 -776 -1178 -2005 -1975 -3393 -2199 -576 -94 -1170 -85 -1740 25
-1321 255 -2435 986 -3206 2104 -76 109 -316 507 -310 512 2 2 54 -33 116 -78
362 -263 865 -566 1298 -783 860 -431 1779 -585 2807 -470 290 32 598 91 945
180 674 173 1030 300 1564 558 348 168 990 513 1114 599 93 64 176 146 190
187 11 29 9 34 -17 60 -43 44 -98 55 -256 54 -205 -1 -311 -28 -650 -166 -896
-364 -1150 -448 -1419 -469 -294 -23 -786 18 -1021 86 -341 99 -804 322 -1048
506 -160 120 -226 205 -227 291 0 47 45 102 98 119 109 35 364 144 567 244
248 121 393 212 558 349 294 243 437 457 437 653 0 117 -38 149 -175 147 -170
-3 -364 -75 -838 -314 -207 -103 -375 -181 -447 -205 l-115 -40 -590 -6 c-720
-7 -617 9 -1220 -189 -440 -145 -551 -172 -736 -178 -157 -5 -290 16 -463 72
-219 72 -389 177 -551 340 -124 124 -191 217 -265 364 -122 244 -180 509 -180
824 0 175 16 321 61 543 261 1310 1010 2439 2114 3187 673 457 1472 748 2280
832 225 24 226 24 580 21 257 -2 368 -8 500 -24z m-450 -10259 c-3 -3 -11 0
-18 7 -9 10 -8 11 6 5 10 -3 15 -9 12 -12z"/>
<path d="M10255 16504 c-555 -27 -1035 -122 -1510 -299 -1086 -405 -1983
-1166 -2565 -2180 -83 -143 -235 -458 -295 -610 -212 -536 -336 -1147 -306
-1510 60 -742 483 -1227 1162 -1331 212 -33 372 0 960 196 200 67 370 123 378
126 11 4 10 8 -4 24 -9 10 -14 24 -10 30 6 9 2 9 -15 0 -15 -8 -20 -8 -16 -1
9 14 -31 71 -47 68 -6 -1 -11 4 -12 11 0 8 -13 26 -29 42 -15 16 -25 33 -22
39 4 6 -2 16 -14 23 -11 7 -20 18 -20 25 0 7 -6 16 -14 20 -14 8 -16 12 -16
34 0 5 -4 8 -9 4 -5 -3 -12 -1 -16 4 -3 6 17 8 52 5 116 -9 899 -84 939 -89
41 -6 41 -6 52 34 l10 40 -412 268 c-837 545 -1001 654 -1005 670 -2 13 -5 14
-12 2 -6 -9 -7 -4 -3 15 6 23 4 27 -7 21 -11 -7 -12 -6 -3 6 13 16 9 56 -7 75
-6 7 -8 23 -4 35 6 18 4 21 -9 16 -18 -7 -23 17 -6 28 6 3 10 11 10 16 0 6 -4
7 -10 4 -6 -4 -7 1 -3 11 4 11 3 15 -5 10 -6 -3 -13 -3 -16 2 -2 4 4 9 15 9
18 2 93 -31 454 -197 83 -38 619 -286 930 -430 316 -147 282 -134 301 -105 16
24 15 26 -196 277 -849 1013 -1364 1635 -1364 1650 0 9 -4 14 -8 12 -16 -10
-29 7 -17 22 6 7 9 20 6 29 -4 8 -1 17 5 21 7 5 8 2 3 -6 -5 -9 -4 -11 3 -6 7
4 12 14 12 22 0 8 -4 12 -10 9 -7 -4 -7 2 -1 18 6 14 7 28 4 31 -4 3 -3 6 0 6
11 0 126 -105 1022 -930 259 -238 517 -476 575 -529 58 -53 134 -123 170 -156
113 -105 120 -109 130 -99 7 7 -46 134 -163 390 -96 208 -283 618 -417 909
-133 292 -291 636 -350 765 -248 541 -303 667 -305 696 -2 32 7 37 34 20 11
-7 13 -4 9 12 -20 74 42 -26 1118 -1800 252 -416 461 -757 465 -758 3 0 -64
370 -148 823 -219 1176 -440 2388 -441 2414 -1 27 16 40 24 19 3 -9 9 -14 13
-12 4 3 12 2 18 -2 6 -4 68 -196 138 -427 69 -231 191 -634 270 -895 79 -261
230 -761 334 -1110 105 -349 195 -644 200 -655 7 -15 10 2 12 60 1 44 3 91 4
105 1 14 5 93 9 175 3 83 9 179 11 215 3 36 28 490 55 1010 106 2006 92 1780
115 1780 12 0 25 4 31 9 5 6 10 -4 11 -27 8 -120 59 -1076 98 -1802 58 -1108
56 -1059 60 -1105 2 -22 7 -123 10 -225 7 -181 15 -230 29 -173 23 93 921
3063 939 3106 13 30 26 36 23 11 0 -9 6 -19 14 -21 12 -4 12 -3 2 5 -11 8 -11
10 1 15 28 11 45 109 -369 -2123 -225 -1209 -219 -1177 -211 -1170 3 3 232
379 510 835 525 865 940 1545 1022 1678 26 42 52 77 57 77 5 0 6 5 2 12 -5 7
-3 8 6 3 7 -4 16 -2 21 6 7 11 9 10 9 -4 0 -11 4 -15 12 -11 7 4 8 3 4 -4 -4
-6 -14 -9 -24 -6 -16 5 -16 5 0 -9 10 -8 17 -16 15 -18 -1 -2 4 2 11 10 6 8
12 12 12 8 0 -3 -116 -262 -259 -574 -246 -541 -334 -733 -781 -1708 -264
-574 -243 -525 -225 -531 9 -4 77 53 192 159 724 669 1665 1534 1708 1570 l30
25 -2 -38 c-1 -31 1 -38 13 -33 11 4 12 8 3 19 -7 8 -9 17 -6 20 3 3 10 -4 17
-15 6 -12 8 -21 4 -21 -3 0 0 -8 7 -17 12 -15 12 -16 -4 -10 -15 6 -17 3 -12
-14 5 -14 3 -19 -4 -15 -6 4 -9 1 -5 -7 7 -18 -113 -163 -1258 -1529 -197
-235 -358 -433 -358 -441 0 -7 6 -21 13 -30 11 -16 84 16 782 338 424 195 808
373 854 395 46 21 87 37 91 35 5 -3 4 -24 -2 -47 -5 -24 -7 -69 -5 -101 4 -56
-4 -80 -19 -56 -4 7 -3 9 3 6 5 -3 10 0 10 8 0 11 -4 12 -13 4 -7 -6 -10 -18
-7 -27 6 -15 5 -16 -12 -2 -17 14 -17 14 -4 -7 7 -12 11 -24 9 -26 -9 -7 -779
-509 -1133 -737 l-347 -225 4 -34 c3 -19 9 -38 13 -42 4 -4 245 16 536 44 436
42 530 48 540 37 9 -10 9 -11 0 -6 -12 6 -17 -5 -14 -26 0 -4 -10 -19 -24 -32
-14 -14 -25 -32 -25 -40 0 -8 -4 -18 -10 -21 -6 -3 -7 1 -4 12 3 10 -5 1 -18
-21 -13 -21 -40 -60 -60 -87 -21 -27 -38 -53 -38 -59 0 -6 -4 -8 -10 -5 -5 3
-10 0 -10 -9 0 -8 -5 -16 -11 -18 -5 -2 -11 -11 -13 -21 -1 -10 -5 -17 -9 -17
-4 0 -22 -7 -40 -17 -17 -9 -93 -33 -167 -53 l-135 -35 4 -50 c1 -28 4 -51 5
-52 0 -1 33 9 71 23 129 43 246 24 299 -49 18 -25 21 -43 21 -133 0 -57 2
-103 5 -101 66 38 194 92 259 108 177 45 314 -7 313 -118 -1 -45 -55 -173
-144 -343 -75 -143 -161 -277 -255 -397 l-72 -92 52 21 c258 103 391 140 582
159 231 24 416 -34 469 -145 40 -84 5 -177 -107 -283 -113 -107 -202 -161
-697 -425 -876 -468 -1309 -639 -2165 -858 -1322 -338 -2459 -284 -3534 169
-294 124 -756 373 -1149 620 -82 51 -84 52 -66 21 29 -48 182 -249 280 -368
118 -143 411 -440 558 -565 328 -281 633 -482 1031 -677 245 -120 383 -177
620 -256 678 -224 1434 -297 2150 -208 1336 166 2580 913 3366 2020 183 258
289 438 429 727 254 527 399 1050 462 1672 20 197 17 710 -5 915 -109 1002
-483 1887 -1128 2665 -102 123 -462 485 -584 586 -723 603 -1550 974 -2455
1103 -271 39 -656 61 -875 50z m-966 -967 c0 -9 -2 -8 -6 1 -2 6 -10 9 -15 6
-7 -4 -8 -2 -4 5 9 13 26 5 25 -12z"/>
<path d="M7540 13715 c0 -8 4 -15 8 -15 5 0 9 7 9 15 0 8 -4 15 -9 15 -4 0 -8
-7 -8 -15z"/>
<path d="M12199 10771 c-25 -10 -66 -32 -90 -48 l-44 -31 -13 -106 c-15 -130
-59 -308 -100 -404 l-30 -72 28 20 c54 38 157 145 208 216 28 39 92 109 142
156 l90 86 0 77 c0 67 -3 79 -25 100 -30 31 -97 33 -166 6z"/>
<path d="M12660 10574 c-121 -33 -313 -176 -392 -293 -76 -111 -253 -271 -410
-370 -49 -31 -85 -65 -131 -124 -84 -107 -252 -268 -352 -337 -44 -30 -120
-76 -170 -102 -49 -26 -84 -48 -78 -48 7 0 93 18 190 41 614 141 1082 414
1321 773 114 170 195 417 150 454 -24 18 -73 21 -128 6z"/>
<path d="M13162 10376 c-157 -51 -305 -169 -415 -330 -217 -317 -584 -565
-1100 -742 -261 -89 -552 -152 -727 -155 l-65 -2 88 -12 c223 -33 612 -45 777
-25 168 21 410 94 745 225 199 77 225 92 326 178 136 117 295 323 419 547 65
116 160 322 153 333 -9 16 -130 5 -201 -17z"/>
<path d="M14870 16575 c0 -3 10 -19 21 -35 20 -27 21 -31 7 -52 -25 -37 -392
-422 -422 -441 -20 -13 -31 -15 -45 -7 -23 12 -34 13 -29 3 6 -15 287 -283
296 -283 5 0 30 16 55 36 50 39 55 64 9 37 -17 -10 -38 -14 -53 -10 -32 9
-116 82 -135 118 -14 28 -13 32 5 62 11 18 56 68 100 112 l81 79 56 -54 c73
-72 80 -85 59 -116 -25 -39 3 -29 58 20 l48 43 -28 7 c-15 3 -59 35 -97 70
l-69 64 94 101 94 100 68 -67 c70 -69 75 -81 52 -136 -7 -16 -6 -17 11 -7 10
6 35 24 53 41 l35 30 -45 37 c-24 20 -94 86 -155 145 -100 99 -124 118 -124
103z"/>
<path d="M5816 16395 c-75 -70 -97 -106 -44 -71 18 12 27 12 45 3 19 -11 220
-216 371 -380 62 -67 75 -100 50 -125 -6 -6 -9 -14 -6 -18 4 -3 48 35 100 85
94 92 104 109 41 70 l-34 -21 -90 89 c-50 48 -154 154 -230 235 l-140 148 16
30 c8 16 12 30 8 30 -5 -1 -44 -34 -87 -75z"/>
<path d="M5433 16014 c-40 -49 -70 -90 -68 -92 2 -3 18 7 35 22 29 24 34 25
58 12 35 -19 411 -309 411 -318 1 -5 -16 -8 -37 -8 -21 0 -202 -13 -402 -30
-200 -16 -367 -30 -372 -30 -31 0 13 -47 155 -162 309 -251 356 -292 362 -306
3 -8 -2 -26 -11 -39 -15 -24 -12 -46 4 -27 107 122 175 229 102 159 -29 -27
-31 -28 -61 -14 -33 16 -409 302 -404 307 2 2 84 10 182 18 419 33 633 58 633
74 0 4 -119 105 -265 225 -155 127 -265 224 -265 234 0 9 5 22 11 28 6 6 9 17
7 23 -2 7 -36 -27 -75 -76z"/>
<path d="M15444 15995 c23 -35 20 -47 -21 -87 -67 -65 -407 -339 -441 -356
-27 -13 -36 -14 -53 -3 -12 7 -23 10 -26 8 -6 -6 139 -187 149 -187 12 0 9 13
-7 34 -8 11 -15 27 -15 36 0 17 49 66 142 144 l56 47 43 -56 42 -55 -32 -145
c-47 -218 -43 -247 52 -358 31 -37 40 -24 14 21 -29 49 -26 123 10 301 l28
133 85 2 c73 1 92 5 132 28 83 49 108 139 65 230 -24 51 -213 288 -230 288 -5
0 -2 -11 7 -25z m119 -176 c95 -111 41 -253 -116 -301 -31 -9 -44 -9 -70 4
-33 16 -112 118 -106 136 6 15 233 201 246 201 6 1 27 -17 46 -40z"/>
<path d="M15875 15207 c-62 -35 -92 -104 -105 -247 -14 -151 -23 -182 -65
-219 -68 -59 -158 -34 -204 58 -40 79 -36 127 16 175 38 36 12 34 -54 -4 -44
-25 -53 -35 -53 -59 0 -34 49 -133 91 -184 98 -118 273 -99 335 36 19 42 26
81 33 183 10 144 17 168 56 204 57 54 142 20 186 -75 25 -55 24 -88 -7 -124
-14 -17 -21 -31 -15 -31 12 0 111 59 111 66 0 16 -65 136 -91 167 -63 76 -157
98 -234 54z"/>
<path d="M4765 15034 c-50 -26 -74 -54 -132 -154 -31 -52 -69 -116 -85 -142
-32 -51 -35 -93 -4 -45 11 16 27 27 40 27 32 0 481 -258 537 -308 27 -24 29
-30 20 -55 -17 -43 6 -32 30 16 12 23 40 70 62 105 22 35 37 65 34 68 -2 3
-18 -9 -35 -26 -31 -31 -31 -31 -69 -15 -59 25 -193 106 -193 117 0 5 14 33
31 62 l31 52 160 22 c196 27 226 41 280 127 48 78 48 98 0 48 -28 -29 -54 -44
-98 -56 -86 -24 -316 -60 -324 -50 -3 4 -14 33 -23 63 -19 65 -63 121 -111
144 -43 20 -112 21 -151 0z m130 -98 c52 -24 98 -69 110 -107 11 -34 -3 -81
-41 -132 -26 -36 -41 -48 -55 -44 -33 9 -269 151 -269 162 0 6 13 32 30 58 55
87 129 108 225 63z"/>
<path d="M17016 14971 c-3 -4 7 -8 21 -9 15 -1 23 1 19 5 -9 10 -35 13 -40 4z"/>
<path d="M16335 14665 c-5 -2 -22 -6 -37 -9 -36 -8 -36 -26 0 -26 17 0 37 -9
49 -22 21 -23 93 -160 93 -176 0 -5 -30 -23 -67 -40 -38 -16 -156 -72 -263
-122 -215 -101 -255 -114 -276 -85 -32 43 -23 0 14 -77 23 -46 46 -96 51 -111
6 -16 15 -26 20 -23 5 4 5 19 -2 36 -16 43 -4 58 94 107 92 47 465 223 472
223 10 0 77 -170 77 -194 0 -14 -9 -31 -22 -40 -37 -26 -11 -30 47 -6 30 12
55 24 55 26 0 1 -42 90 -94 196 -104 214 -146 310 -146 333 0 14 -36 20 -65
10z"/>
<path d="M17027 14339 c7 -7 15 -10 18 -7 3 3 -2 9 -12 12 -14 6 -15 5 -6 -5z"/>
<path d="M5034 14172 l-31 -37 -382 -3 c-212 -2 -381 -7 -381 -12 0 -5 116
-120 258 -255 141 -136 263 -258 271 -272 8 -17 11 -40 7 -67 -5 -27 -4 -38 3
-31 12 12 71 151 78 185 l6 25 -22 -23 c-28 -29 -41 -22 -136 72 l-73 71 45
108 46 107 123 0 c101 0 125 -3 132 -16 7 -12 10 -13 19 -2 18 23 76 165 72
176 -2 6 -18 -6 -35 -26z m-365 -138 c2 -2 -13 -44 -34 -94 l-38 -90 -69 63
c-39 34 -89 79 -111 100 l-42 38 145 -7 c80 -3 147 -8 149 -10z"/>
<path d="M16011 13786 c-2 -17 64 -206 71 -206 4 0 8 12 10 28 l3 27 114 3
c63 1 118 -1 122 -5 5 -5 24 -57 43 -116 l34 -107 -94 -81 c-59 -51 -100 -79
-109 -75 -21 8 -19 -10 11 -106 32 -101 44 -117 42 -55 0 27 6 57 15 71 12 18
434 385 545 474 28 21 1 30 -108 37 -58 3 -136 7 -175 10 -38 2 -128 7 -200
11 -255 12 -271 16 -312 80 -6 11 -12 15 -12 10z m624 -159 l40 -2 -115 -93
-115 -92 -31 92 c-29 88 -30 93 -12 98 17 5 131 3 233 -3z"/>
<path d="M4022 13524 c8 -7 -13 -97 -63 -268 -22 -76 -37 -141 -33 -145 4 -3
8 -1 11 4 18 49 30 60 64 57 39 -3 482 -122 556 -150 42 -15 49 -22 54 -52 7
-41 11 -32 34 60 9 36 32 116 51 178 19 62 34 119 34 126 0 15 -79 56 -107 56
-13 0 -9 -7 15 -26 37 -29 40 -57 18 -142 -19 -69 -41 -102 -69 -102 -37 0
-261 66 -264 77 -7 19 36 151 54 168 9 9 24 14 34 12 11 -3 21 -2 24 2 2 5
-25 20 -61 34 l-65 25 6 -31 c3 -19 -4 -67 -18 -117 -19 -73 -25 -85 -42 -82
-26 5 -239 63 -243 67 -6 5 39 149 54 173 10 15 24 22 44 22 45 0 36 14 -23
38 -51 21 -76 28 -65 16z"/>
<path d="M16660 12924 c-173 -30 -325 -52 -337 -49 -13 3 -25 16 -29 30 -3 14
-10 25 -15 25 -11 0 -12 5 9 -117 19 -111 32 -141 32 -75 0 38 3 44 33 57 28
14 488 107 495 101 1 -2 -72 -101 -162 -222 -190 -255 -306 -422 -306 -441 0
-7 4 -13 9 -13 5 0 147 23 314 50 358 59 374 60 383 25 3 -14 10 -25 15 -25
12 0 12 -2 -8 118 -17 104 -33 134 -33 61 0 -36 -3 -41 -32 -53 -39 -16 -487
-100 -495 -93 -2 3 104 150 237 327 132 177 239 327 237 334 -2 6 -10 12 -18
13 -8 0 -156 -23 -329 -53z"/>
<path d="M4450 12740 c0 -5 13 -16 30 -25 36 -19 45 -48 36 -123 -11 -92 -25
-132 -50 -143 -23 -11 -169 6 -464 53 -137 22 -168 35 -159 69 3 11 1 21 -4
24 -10 7 -12 -3 -32 -135 -15 -92 -7 -147 10 -79 13 50 37 50 373 -2 278 -43
300 -49 300 -85 0 -30 18 -31 24 -1 32 174 62 395 54 409 -4 10 -32 24 -60 33
-61 18 -58 18 -58 5z"/>
<path d="M17110 11921 c0 -16 -6 -33 -13 -39 -16 -14 -590 -27 -632 -14 -18 5
-31 16 -33 28 -2 10 -7 23 -11 27 -13 13 -21 -337 -10 -405 22 -138 98 -240
217 -296 49 -23 70 -27 152 -27 82 0 103 4 152 27 75 35 141 104 168 174 28
75 43 191 36 283 -3 42 -5 120 -5 174 -1 57 -5 97 -11 97 -5 0 -10 -13 -10
-29z m-14 -188 c11 -59 -11 -203 -39 -259 -75 -146 -242 -215 -411 -170 -82
23 -127 61 -167 142 -30 60 -33 74 -33 163 0 107 14 146 56 154 13 2 150 5
305 6 l282 2 7 -38z"/>
<path d="M4430 11655 c0 -63 -47 -131 -245 -350 -59 -66 -111 -121 -115 -123
-3 -1 -74 64 -157 145 -115 113 -153 156 -158 181 -13 61 -21 32 -17 -60 2
-51 6 -95 8 -97 2 -2 10 2 18 8 9 8 21 9 29 4 19 -11 296 -257 293 -261 -2 -1
-69 -5 -149 -8 l-147 -7 -11 32 c-8 23 -14 29 -20 20 -4 -7 -6 -16 -4 -19 2
-4 5 -47 6 -96 1 -49 4 -95 6 -101 8 -21 23 -4 23 27 0 16 5 32 11 36 17 10
408 35 569 36 60 0 76 -3 85 -17 33 -54 34 -52 28 70 -3 66 -9 124 -14 129 -5
6 -9 -1 -9 -17 0 -50 -27 -64 -136 -71 -55 -4 -123 -9 -151 -11 -29 -3 -53 -2
-53 3 0 4 19 26 41 47 89 86 250 269 269 305 24 48 32 100 24 168 -6 53 -24
73 -24 27z"/>
<path d="M16380 10927 c0 -20 -20 -180 -25 -204 -8 -36 13 -27 23 10 8 30 11
32 61 35 77 4 571 -57 599 -74 13 -9 22 -24 22 -40 0 -53 17 -11 24 58 4 40 9
90 13 111 4 24 2 37 -6 37 -6 0 -11 -6 -11 -14 0 -31 -31 -48 -79 -42 -429 53
-550 69 -571 79 -14 7 -26 22 -28 35 -4 23 -22 31 -22 9z"/>
<path d="M4404 10678 c-3 -4 -3 -9 0 -9 3 -1 9 -2 14 -3 72 -16 90 -43 99
-156 5 -64 4 -69 -18 -83 -13 -8 -80 -25 -148 -37 -142 -26 -136 -28 -146 65
-9 82 -4 107 23 121 35 17 15 23 -55 17 l-62 -6 16 -24 c16 -24 56 -193 48
-201 -9 -9 -260 -51 -266 -44 -7 8 -29 139 -29 172 0 13 12 28 30 38 37 21 39
34 3 28 -16 -2 -44 -5 -65 -5 l-36 -1 13 -42 c7 -24 25 -115 40 -203 27 -158
45 -215 45 -142 0 27 6 39 22 48 27 14 546 109 599 109 34 0 41 -4 50 -27 19
-48 22 -6 5 80 -9 45 -23 129 -32 187 -9 58 -21 111 -26 118 -12 14 -115 14
-124 0z"/>
<path d="M16329 10465 c-4 -5 -17 -50 -29 -100 -12 -49 -25 -96 -27 -102 -11
-29 15 -10 30 22 12 25 23 35 39 35 31 0 481 -100 491 -110 5 -4 -47 -38 -115
-75 -310 -172 -568 -330 -568 -349 0 -8 123 -44 323 -95 177 -45 328 -87 335
-93 6 -6 12 -24 12 -41 0 -51 16 -19 40 78 13 50 25 96 27 103 11 28 -15 9
-28 -20 -10 -24 -22 -34 -42 -36 -27 -3 -467 93 -495 108 -9 4 28 30 105 73
331 184 588 336 588 348 0 10 -96 38 -323 96 -178 45 -329 87 -337 93 -8 6
-15 26 -17 43 -2 18 -6 28 -9 22z"/>
<path d="M4580 9983 c-38 -7 -49 -23 -16 -23 56 0 88 -39 116 -143 21 -78 11
-89 -123 -131 -165 -52 -158 -52 -178 19 -25 85 -24 132 1 140 28 9 25 29 -2
22 -13 -4 -42 -9 -65 -13 -48 -7 -50 -10 -28 -34 21 -23 76 -188 65 -195 -17
-10 -225 -75 -241 -75 -12 0 -22 21 -38 78 -27 101 -27 112 7 139 32 26 20 29
-57 12 -49 -10 -50 -11 -37 -32 8 -12 38 -101 66 -197 51 -170 79 -237 67
-158 -7 46 6 61 70 82 238 76 483 148 522 153 44 5 50 3 56 -16 3 -11 11 -21
16 -21 12 0 11 13 -2 47 -7 15 -32 100 -58 188 l-46 160 -35 1 c-19 1 -46 0
-60 -3z"/>
<path d="M16121 9389 c-68 -27 -164 -121 -208 -204 -42 -81 -75 -193 -71 -246
l3 -43 125 -56 125 -55 6 -40 5 -40 18 40 c10 22 31 69 47 104 16 35 29 68 29
72 0 18 -17 8 -28 -16 -16 -35 -38 -32 -163 21 l-109 47 0 36 c0 51 51 153
102 203 24 24 66 54 93 68 43 22 63 25 150 25 87 0 107 -3 156 -26 182 -86
231 -234 138 -421 -56 -113 -121 -163 -194 -151 -26 4 -36 3 -32 -5 11 -16
140 -73 148 -65 26 30 122 206 141 261 35 101 33 227 -5 303 -34 70 -110 142
-185 177 -80 37 -213 42 -291 11z"/>
<path d="M4720 9235 c-102 -33 -148 -101 -200 -295 -17 -63 -39 -128 -49 -145
-40 -69 -125 -94 -187 -56 -39 24 -74 94 -74 150 0 36 6 49 35 78 20 20 34 38
32 40 -3 2 -35 -9 -71 -24 l-67 -27 6 -35 c20 -107 81 -208 144 -241 86 -43
206 -14 263 64 37 51 52 87 85 201 36 127 60 173 107 207 37 27 47 29 98 26
44 -3 64 -10 84 -29 86 -80 87 -213 3 -263 -26 -15 -39 -36 -23 -36 3 0 39 14
81 31 l75 32 -5 54 c-11 103 -82 219 -159 259 -43 22 -125 26 -178 9z"/>
<path d="M17052 8983 c-16 -29 -12 -83 6 -83 11 0 12 3 3 14 -9 10 -9 15 -1
18 7 2 10 19 8 38 -3 34 -3 34 -16 13z"/>
<path d="M17012 8856 c7 -8 15 -12 17 -11 5 6 -10 25 -20 25 -5 0 -4 -6 3 -14z"/>
<path d="M14468 7586 c-29 -36 -263 -250 -420 -385 -54 -45 -98 -89 -98 -97 0
-20 10 -17 54 16 62 47 89 41 161 -32 113 -118 567 -633 601 -683 42 -61 42
-83 4 -120 -34 -32 -38 -45 -14 -45 9 0 53 35 98 78 45 42 122 111 171 152
111 92 257 221 267 235 17 23 6 55 -41 121 -78 111 -112 127 -72 33 16 -36 21
-62 17 -84 -8 -41 -68 -110 -147 -169 -76 -57 -110 -60 -162 -13 -62 54 -267
291 -266 307 0 16 119 121 177 157 47 29 64 29 100 -2 27 -23 62 -34 62 -19 0
3 -24 35 -53 72 -29 37 -63 82 -76 100 -27 39 -41 41 -41 5 0 -23 -22 -49
-112 -135 -61 -60 -117 -108 -123 -108 -10 0 -276 291 -283 310 -3 9 150 139
199 169 44 27 66 26 111 -4 42 -29 48 -30 48 -12 0 11 -125 187 -133 187 -1 0
-14 -15 -29 -34z"/>
<path d="M6083 7147 c-219 -199 -411 -372 -427 -385 -35 -27 -72 -28 -111 -2
-35 23 -45 25 -45 7 0 -8 21 -29 48 -48 26 -18 91 -71 145 -116 55 -46 103
-81 108 -77 12 7 -2 32 -35 63 -54 51 -49 58 226 320 139 132 254 239 255 237
2 -1 -20 -101 -48 -222 -60 -262 -129 -592 -129 -618 0 -15 5 -17 28 -13 15 3
197 85 405 182 208 97 380 175 382 173 5 -5 -350 -594 -373 -620 -8 -10 -23
-18 -34 -18 -10 0 -18 -4 -18 -8 0 -20 282 -262 305 -262 23 0 19 8 -30 62
-56 63 -60 89 -23 163 12 22 136 236 276 475 141 238 258 444 260 457 3 18 0
23 -16 23 -11 0 -225 -96 -474 -214 -249 -118 -454 -213 -455 -212 -2 1 47
220 107 487 61 266 110 494 110 507 0 15 -6 22 -20 22 -12 0 -174 -140 -417
-363z"/>
<path d="M12880 6474 c-193 -98 -252 -136 -184 -120 93 21 109 20 137 -14 34
-40 416 -804 440 -879 16 -49 16 -56 2 -77 -8 -13 -29 -31 -45 -39 -32 -17
-40 -35 -15 -35 8 0 79 33 158 73 78 40 227 112 330 161 104 49 192 97 197
106 11 20 -2 80 -36 165 -35 87 -53 86 -46 -3 4 -66 3 -70 -28 -106 -39 -44
-201 -126 -264 -133 -40 -5 -45 -3 -79 37 -49 58 -417 792 -424 847 -5 42 -5
43 46 74 52 33 64 50 34 48 -10 -1 -110 -48 -223 -105z"/>
<path d="M8398 6188 c-52 -57 -228 -253 -392 -436 -163 -182 -313 -344 -331
-358 -36 -27 -76 -33 -139 -20 -66 15 -38 -16 40 -43 38 -13 116 -41 173 -62
58 -22 113 -39 123 -39 31 0 20 17 -22 34 -49 20 -58 38 -37 80 22 48 197 246
216 246 9 0 88 -27 176 -58 l160 -59 8 -89 c4 -49 6 -136 5 -194 -3 -100 -4
-105 -25 -108 -35 -5 -28 -18 20 -37 125 -51 312 -115 333 -115 34 0 23 14
-32 41 -91 43 -94 64 -124 812 -10 268 -22 492 -25 497 -14 22 -37 5 -127 -92z
m-28 -406 c0 -115 -2 -211 -5 -214 -3 -3 -65 16 -138 42 -89 33 -132 53 -131
62 1 16 254 318 267 318 4 0 7 -94 7 -208z"/>
<path d="M11825 6089 c-38 -10 -117 -28 -175 -40 -143 -28 -180 -38 -180 -49
0 -5 28 -10 63 -12 60 -3 62 -4 80 -39 25 -52 207 -868 214 -961 l6 -77 -34
-15 c-19 -8 -42 -17 -51 -20 -25 -7 -22 -26 3 -26 11 0 64 11 117 24 53 14
147 34 207 46 141 27 145 29 145 46 0 12 -8 13 -34 8 -58 -10 -103 -9 -120 5
-9 8 -25 43 -36 80 -20 68 -193 832 -205 909 -9 55 11 87 65 103 22 7 40 18
40 26 0 17 -19 15 -105 -8z"/>
<path d="M10095 5936 c-195 -38 -351 -154 -429 -319 -46 -98 -60 -164 -60
-282 2 -254 116 -436 341 -546 117 -57 240 -81 423 -82 164 -1 243 13 265 47
17 27 59 222 51 241 -10 27 -25 16 -38 -27 -18 -62 -99 -141 -160 -156 -75
-19 -216 -15 -290 8 -122 37 -239 135 -302 251 -85 154 -87 404 -6 576 39 85
120 164 197 194 72 27 209 36 295 19 180 -35 264 -104 283 -233 7 -46 18 -66
29 -49 3 5 10 67 16 138 6 71 12 138 13 149 2 17 -13 22 -133 47 -166 35 -386
45 -495 24z"/>
</g>
</svg>
